<?xml version="1.0" encoding="UTF-8"?>
<svg xmlns="http://www.w3.org/2000/svg" xmlns:xlink="http://www.w3.org/1999/xlink" width="1546.46pt" height="313.09pt" viewBox="0 0 1546.46 313.09" version="1.1">
<defs>
<clipPath id="clip1">
  <path d="M 1410 105 L 1546.460938 105 L 1546.460938 306 L 1410 306 Z M 1410 105 "/>
</clipPath>
<clipPath id="clip2">
  <path d="M 7 0 L 288 0 L 288 313.089844 L 7 313.089844 Z M 7 0 "/>
</clipPath>
<clipPath id="clip3">
  <path d="M 0 76 L 137 76 L 137 313.089844 L 0 313.089844 Z M 0 76 "/>
</clipPath>
</defs>
<g id="surface1">
<path style=" stroke:none;fill-rule:nonzero;fill:rgb(21.166992%,20.776367%,27.050781%);fill-opacity:1;" d="M 384.601563 204.710938 L 411.394531 190.636719 C 423.308594 214.175781 441.699219 225.515625 466.5625 225.515625 C 490.910156 225.515625 507.398438 217.660156 507.398438 199.558594 C 507.398438 182.230469 494.96875 174.117188 461.957031 164.390625 C 423.28125 153.023438 392.171875 142.488281 392.171875 104.328125 C 392.171875 70.253906 420.027344 47.804688 460.605469 47.804688 C 500.089844 47.804688 523.371094 67.289063 535.546875 90.800781 L 510.9375 107.839844 C 499.023438 87.808594 481.988281 78.628906 460.347656 78.628906 C 438.15625 78.628906 425.4375 86.742188 425.4375 101.363281 C 425.4375 120.039063 439.769531 126.257813 472.492188 135.984375 C 510.363281 147.0625 540.667969 159.523438 540.667969 197.109375 C 540.667969 229.832031 512.808594 255.53125 465.210938 255.53125 C 425.464844 255.5625 397.320313 235.011719 384.601563 204.710938 "/>
<path style=" stroke:none;fill-rule:nonzero;fill:rgb(21.166992%,20.776367%,27.050781%);fill-opacity:1;" d="M 554.769531 251.761719 L 554.769531 51.605469 L 588.039063 51.605469 L 588.039063 170.894531 L 642.402344 108.125 L 678.921875 108.125 L 632.128906 160.617188 L 682.980469 251.789063 L 648.070313 251.789063 L 611.003906 185.253906 L 588.007813 210.40625 L 588.007813 251.789063 L 554.769531 251.789063 "/>
<path style=" stroke:none;fill-rule:nonzero;fill:rgb(21.166992%,20.776367%,27.050781%);fill-opacity:1;" d="M 782.007813 166.03125 C 780.109375 144.128906 769.285156 132.472656 749.285156 132.472656 C 733.054688 132.472656 718.175781 141.683594 714.925781 166.03125 Z M 681.109375 180.101563 C 681.109375 125.449219 719.789063 105.449219 749.546875 105.449219 C 781.746094 105.449219 812.570313 124.644531 812.570313 183.09375 L 812.570313 190.953125 L 714.378906 190.953125 C 715.730469 216.910156 731.703125 228.277344 752.796875 228.277344 C 771.476563 228.277344 782.296875 222.0625 793.117188 211.5 L 810.699219 228.824219 C 795.820313 245.316406 776.078125 254.785156 750.378906 254.785156 C 714.378906 254.753906 681.109375 232.824219 681.109375 180.101563 "/>
<path style=" stroke:none;fill-rule:nonzero;fill:rgb(21.166992%,20.776367%,27.050781%);fill-opacity:1;" d="M 848.542969 214.175781 L 848.542969 134.632813 L 823.648438 134.632813 L 823.648438 108.125 L 848.542969 108.125 L 848.542969 58.082031 L 881.8125 58.082031 L 881.8125 108.125 L 918.878906 108.125 L 918.878906 134.632813 L 881.8125 134.632813 L 881.8125 205.773438 C 881.8125 221.199219 886.417969 227.414063 902.90625 227.414063 C 907.773438 227.414063 913.988281 226.609375 917.238281 225.515625 L 917.238281 251.761719 C 913.730469 252.566406 901.265625 253.660156 892.894531 253.660156 C 856.398438 253.660156 848.542969 240.136719 848.542969 214.175781 "/>
<path style=" stroke:none;fill-rule:nonzero;fill:rgb(21.166992%,20.776367%,27.050781%);fill-opacity:1;" d="M 931.859375 180.101563 C 931.859375 125.191406 968.925781 105.449219 1000.839844 105.449219 C 1036.558594 105.449219 1051.691406 125.191406 1060.359375 147.382813 L 1032.210938 157.394531 C 1026.539063 141.164063 1016.238281 133.308594 1000.300781 133.308594 C 981.359375 133.308594 965.386719 145.738281 965.386719 180.101563 C 965.386719 210.664063 977.816406 227.445313 999.746094 227.445313 C 1014.890625 227.445313 1025.449219 222.839844 1033.300781 202.550781 L 1060.898438 212.566406 C 1050.628906 235.558594 1033.589844 254.753906 998.972656 254.753906 C 965.671875 254.753906 931.859375 232.566406 931.859375 180.101563 "/>
<path style=" stroke:none;fill-rule:nonzero;fill:rgb(21.166992%,20.776367%,27.050781%);fill-opacity:1;" d="M 1080.898438 251.761719 L 1080.898438 51.605469 L 1114.460938 51.605469 L 1114.460938 127.609375 C 1123.671875 117.882813 1140.96875 105.421875 1166.929688 105.421875 C 1192.078125 105.421875 1208.308594 120.300781 1208.308594 148.703125 L 1208.308594 251.761719 L 1174.78125 251.761719 L 1174.78125 157.078125 C 1174.78125 141.136719 1168.019531 133.824219 1153.398438 133.824219 C 1138.78125 133.824219 1126.609375 141.394531 1114.429688 152.503906 L 1114.429688 251.789063 L 1080.898438 251.789063 "/>
<path style=" stroke:none;fill-rule:nonzero;fill:rgb(21.166992%,20.776367%,27.050781%);fill-opacity:1;" d="M 1233.75 178.722656 L 1233.75 51.605469 L 1267.558594 51.605469 L 1267.558594 175.757813 C 1267.558594 206.320313 1280.828125 224.449219 1311.648438 224.449219 C 1342.21875 224.449219 1355.480469 206.867188 1355.480469 176.015625 L 1355.480469 51.605469 L 1388.75 51.605469 L 1388.75 178.460938 C 1388.75 223.90625 1363.050781 255.011719 1311.398438 255.011719 C 1256.199219 255.011719 1233.75 224.191406 1233.75 178.722656 "/>
<g clip-path="url(#clip1)" clip-rule="nonzero">
<path style=" stroke:none;fill-rule:nonzero;fill:rgb(21.166992%,20.776367%,27.050781%);fill-opacity:1;" d="M 1513.191406 180.101563 C 1513.191406 149.796875 1500.210938 133.855469 1478.828125 133.855469 C 1465.050781 133.855469 1451.78125 142.515625 1443.921875 151.984375 L 1443.921875 209.601563 C 1452.839844 221.226563 1465.820313 227.445313 1477.738281 227.445313 C 1502.921875 227.414063 1513.191406 212.019531 1513.191406 180.101563 M 1410.648438 305.867188 L 1410.648438 108.125 L 1443.921875 108.125 L 1443.921875 127.0625 C 1453.390625 115.695313 1468.269531 105.421875 1489.648438 105.421875 C 1522.371094 105.421875 1546.460938 130.027344 1546.460938 179.816406 C 1546.460938 229.601563 1521.851563 253.921875 1485.050781 253.921875 C 1469.621094 253.921875 1454.480469 247.703125 1443.921875 235.789063 L 1443.921875 305.835938 L 1410.648438 305.835938 "/>
</g>
<g clip-path="url(#clip2)" clip-rule="nonzero">
<path style=" stroke:none;fill-rule:nonzero;fill:rgb(0%,37.255859%,61.914063%);fill-opacity:1;" d="M 217.652344 233.140625 L 186.890625 250.785156 L 186.890625 234.234375 L 210.835938 220.539063 C 233.625 204.105469 237.394531 179.871094 237.394531 171.46875 L 237.308594 97.046875 L 172.011719 59.460938 C 172.011719 59.460938 162.082031 52.957031 144.238281 52.957031 C 126.394531 52.957031 116.667969 58.972656 116.667969 58.972656 L 93.730469 72.152344 L 79.257813 63.777344 L 110.941406 45.675781 C 110.941406 45.675781 123.347656 38.796875 144.125 38.796875 C 163.203125 38.796875 178.054688 46.253906 178.054688 46.253906 L 251.785156 88.84375 L 251.699219 170.058594 C 252.21875 182.546875 246.402344 213.054688 217.652344 233.140625 M 134.136719 95.347656 C 134.136719 95.347656 155.203125 91.464844 173.019531 101.738281 C 190.832031 112.011719 201.335938 118.054688 201.335938 118.054688 C 201.335938 118.054688 201.363281 132.359375 201.363281 153.742188 C 201.363281 170.863281 186.859375 188.621094 186.859375 188.621094 L 186.890625 125.796875 Z M 287.816406 68.179688 L 185.910156 9.445313 C 185.910156 9.445313 169.765625 0.00390625 144.007813 0.00390625 C 117.1875 0.00390625 101.648438 9.730469 101.648438 9.730469 L 7.253906 63.75 L 150.859375 146.285156 L 150.859375 313.089844 L 245.367188 259.128906 C 245.367188 259.128906 262.261719 249.804688 275.097656 227.644531 C 286.40625 208.132813 287.816406 189.253906 287.816406 189.253906 "/>
</g>
<g clip-path="url(#clip3)" clip-rule="nonzero">
<path style=" stroke:none;fill-rule:nonzero;fill:rgb(0%,37.255859%,61.914063%);fill-opacity:1;" d="M 0 117.765625 L 100.667969 175.527344 L 100.582031 192.734375 L 43.3125 159.898438 L 7.28125 180.390625 L 100.523438 234.121094 L 100.582031 250.699219 L 0.691406 193.226563 C 0.949219 199.960938 7.050781 220.710938 18.734375 236.769531 C 30.59375 253.027344 44.117188 259.933594 44.117188 259.933594 L 136.441406 313.089844 L 136.441406 154.574219 L 0.0859375 76.269531 "/>
</g>
</g>
</svg>
